<?xml version="1.0" encoding="UTF-8"?>
<!DOCTYPE svg PUBLIC "-//W3C//DTD SVG 1.0//EN" "http://www.w3.org/TR/2001/REC-SVG-20010904/DTD/svg10.dtd">
<!-- Creator: CorelDRAW 2018 (64 Bit Versão de avaliação) -->
<svg xmlns="http://www.w3.org/2000/svg" xml:space="preserve" width="85mm" height="85mm" version="1.0" style="shape-rendering:geometricPrecision; text-rendering:geometricPrecision; image-rendering:optimizeQuality; fill-rule:evenodd; clip-rule:evenodd"
viewBox="0 0 8500 8500"
 xmlns:xlink="http://www.w3.org/1999/xlink">
 <defs>
  <style type="text/css">
   <![CDATA[
    .fil0 {fill:#FEFEFE;fill-rule:nonzero}
   ]]>
  </style>
 </defs>
 <g id="Camada_x0020_1">
  <metadata id="CorelCorpID_0Corel-Layer"/>
  <path class="fil0" d="M201.45 8296.01c133.93,135.99 309.78,203.99 485.63,203.99 175.93,0 351.51,-68 485.95,-203.99l1930.47 -1957.17c556.32,393.21 1232.45,624.39 1961.94,624.39 1897.03,0 3434.56,-1558.89 3434.56,-3481.6 0,-1923.02 -1537.53,-3481.63 -3434.56,-3481.63 -1896.79,0 -3434.63,1558.61 -3434.63,3481.34 0,679.57 192.74,1313.15 524.86,1848.85l-1954.22 1980.89c-268.59,272.05 -268.59,713.17 0,984.93zm4863.99 -7168.35c1282.13,0 2321.34,1054 2321.34,2353.68 0,1299.74 -1039.21,2353.45 -2321.34,2353.45 -1282.22,0 -2321.71,-1053.71 -2321.71,-2353.45 0,-1299.68 1039.21,-2353.68 2321.71,-2353.68z"/>
 </g>
</svg>
